# 3ds Max Wavefront OBJ Exporter v0.97b - (c)2007 guruware
# File Created: 26.07.2014 15:24:46

mtllib prate.mtl

#
# object Box006
#

v  -21.2816 58.7868 18.4191
v  -21.2816 58.7868 3.6897
v  42.4673 58.7868 3.6897
v  42.4673 58.7868 18.4191
v  -21.2816 60.5513 18.4191
v  42.4673 60.5513 18.4191
v  42.4673 60.5513 3.6897
v  -21.2816 60.5513 3.6897
v  -30.0000 0.0000 23.0850
v  -30.0000 0.0000 2.9970
v  -20.0000 0.0000 2.9970
v  -20.0000 0.0000 23.0850
v  -30.0000 60.5184 23.0850
v  -20.0000 60.5184 23.0850
v  -20.0000 60.5184 2.9970
v  -30.0000 60.5184 2.9970
v  40.2978 0.0000 23.0850
v  40.2978 0.0000 2.9970
v  50.2977 0.0000 2.9970
v  50.2977 0.0000 23.0850
v  40.2978 60.5184 23.0850
v  50.2977 60.5184 23.0850
v  50.2977 60.5184 2.9970
v  40.2978 60.5184 2.9970
v  -19.8015 36.7531 18.4191
v  -19.8015 36.7531 3.6897
v  40.2320 36.7531 3.6897
v  40.2320 36.7531 18.4191
v  -19.8015 38.5176 18.4191
v  40.2320 38.5176 18.4191
v  40.2320 38.5176 3.6897
v  -19.8015 38.5176 3.6897
v  -19.8015 18.0767 18.4191
v  -19.8015 18.0767 3.6897
v  40.2320 18.0767 3.6897
v  40.2320 18.0767 18.4191
v  -19.8015 19.8413 18.4191
v  40.2320 19.8413 18.4191
v  40.2320 19.8413 3.6897
v  -19.8015 19.8413 3.6897
v  -19.8015 0.0000 18.4191
v  -19.8015 0.0000 3.6897
v  40.2320 0.0000 3.6897
v  40.2320 0.0000 18.4191
v  -19.8015 1.7646 18.4191
v  40.2320 1.7646 18.4191
v  40.2320 1.7646 3.6897
v  -19.8015 1.7646 3.6897
v  -20.6575 0.0000 23.2691
v  -20.6575 0.0000 18.3485
v  40.5935 0.0000 18.3485
v  40.5935 0.0000 23.2691
v  -20.6575 60.4417 23.2691
v  40.5935 60.4417 23.2691
v  40.5935 60.4417 18.3485
v  -20.6575 60.4417 18.3485
# 56 vertices

vn 0.0000 -1.0000 -0.0000
vn 0.0000 1.0000 -0.0000
vn 0.0000 0.0000 1.0000
vn 1.0000 0.0000 -0.0000
vn 0.0000 0.0000 -1.0000
vn -1.0000 0.0000 -0.0000
# 6 vertex normals

vt 1.0000 0.0000 0.0000
vt 1.0000 14.7294 0.0000
vt -54.9897 14.7294 0.0000
vt -54.9897 0.0000 0.0000
vt 0.0000 0.0000 0.0000
vt 55.9897 0.0000 0.0000
vt 55.9897 14.7294 0.0000
vt 0.0000 14.7294 0.0000
vt 55.9897 4.2134 0.0000
vt 0.0000 4.2134 0.0000
vt 14.7294 0.0000 0.0000
vt 14.7294 4.2134 0.0000
vt 1.0000 50.0000 0.0000
vt -9.0000 50.0000 0.0000
vt -9.0000 0.0000 0.0000
vt 10.0000 0.0000 0.0000
vt 10.0000 50.0000 0.0000
vt 0.0000 50.0000 0.0000
vt 10.0000 40.0000 0.0000
vt 0.0000 40.0000 0.0000
vt 50.0000 0.0000 0.0000
vt 50.0000 40.0000 0.0000
vt 1.0000 4.9206 0.0000
vt -58.0292 4.9206 0.0000
vt -58.0292 0.0000 0.0000
vt 59.0292 0.0000 0.0000
vt 59.0292 4.9206 0.0000
vt 0.0000 4.9206 0.0000
vt 59.0292 60.4417 0.0000
vt 0.0000 60.4417 0.0000
vt 4.9206 0.0000 0.0000
vt 4.9206 60.4417 0.0000
# 32 texture coords

g Box006
usemtl wire_176026026
s 2
f 1/1/1 2/2/1 3/3/1 4/4/1 
s 4
f 5/5/2 6/6/2 7/7/2 8/8/2 
s 8
f 1/5/3 4/6/3 6/9/3 5/10/3 
s 16
f 4/5/4 3/11/4 7/12/4 6/10/4 
s 32
f 3/5/5 2/6/5 8/9/5 7/10/5 
s 64
f 2/5/6 1/11/6 5/12/6 8/10/6 
s 2
f 9/1/1 10/13/1 11/14/1 12/15/1 
s 4
f 13/5/2 14/16/2 15/17/2 16/18/2 
s 8
f 9/5/3 12/16/3 14/19/3 13/20/3 
s 16
f 12/5/4 11/21/4 15/22/4 14/20/4 
s 32
f 11/5/5 10/16/5 16/19/5 15/20/5 
s 64
f 10/5/6 9/21/6 13/22/6 16/20/6 
s 2
f 17/1/1 18/13/1 19/14/1 20/15/1 
s 4
f 21/5/2 22/16/2 23/17/2 24/18/2 
s 8
f 17/5/3 20/16/3 22/19/3 21/20/3 
s 16
f 20/5/4 19/21/4 23/22/4 22/20/4 
s 32
f 19/5/5 18/16/5 24/19/5 23/20/5 
s 64
f 18/5/6 17/21/6 21/22/6 24/20/6 
s 2
f 25/1/1 26/2/1 27/3/1 28/4/1 
s 4
f 29/5/2 30/6/2 31/7/2 32/8/2 
s 8
f 25/5/3 28/6/3 30/9/3 29/10/3 
s 16
f 28/5/4 27/11/4 31/12/4 30/10/4 
s 32
f 27/5/5 26/6/5 32/9/5 31/10/5 
s 64
f 26/5/6 25/11/6 29/12/6 32/10/6 
s 2
f 33/1/1 34/2/1 35/3/1 36/4/1 
s 4
f 37/5/2 38/6/2 39/7/2 40/8/2 
s 8
f 33/5/3 36/6/3 38/9/3 37/10/3 
s 16
f 36/5/4 35/11/4 39/12/4 38/10/4 
s 32
f 35/5/5 34/6/5 40/9/5 39/10/5 
s 64
f 34/5/6 33/11/6 37/12/6 40/10/6 
s 2
f 41/1/1 42/2/1 43/3/1 44/4/1 
s 4
f 45/5/2 46/6/2 47/7/2 48/8/2 
s 8
f 41/5/3 44/6/3 46/9/3 45/10/3 
s 16
f 44/5/4 43/11/4 47/12/4 46/10/4 
s 32
f 43/5/5 42/6/5 48/9/5 47/10/5 
s 64
f 42/5/6 41/11/6 45/12/6 48/10/6 
s 2
f 49/1/1 50/23/1 51/24/1 52/25/1 
s 4
f 53/5/2 54/26/2 55/27/2 56/28/2 
s 8
f 49/5/3 52/26/3 54/29/3 53/30/3 
s 16
f 52/5/4 51/31/4 55/32/4 54/30/4 
s 32
f 51/5/5 50/26/5 56/29/5 55/30/5 
s 64
f 50/5/6 49/31/6 53/32/6 56/30/6 
# 42 polygons

